<svg xmlns="http://www.w3.org/2000/svg" viewBox="0 0 515.4 515.5"><g fill="#FFF"><path d="M365.4 333H150c-3.9 0-7.2-3.2-7.2-7.2v-7.4h229.7v7.4c.1 4-3.1 7.2-7.1 7.2zM352.1 191.2H163.3c-1.4 0-2.6 1.2-2.6 2.6v112.7c0 1.4 1.2 2.6 2.6 2.6h188.9c1.4 0 2.6-1.2 2.6-2.6V193.8c0-1.4-1.2-2.6-2.7-2.6zm-94.4 3.2c1.6 0 3 1.4 3 3s-1.4 3-3 3-3-1.4-3-3 1.4-3 3-3zM341.5 296H173.8v-91.6h167.7V296z"/><circle cx="207.5" cy="236.3" r="8.2"/><circle cx="307.9" cy="236.3" r="8.2"/><path d="M257.7 283.7c26.5 0 49-11.6 56.8-27.6.8-1.8-.5-3.9-2.5-3.9H203.4c-2 0-3.3 2.1-2.5 3.9 7.8 16 30.3 27.6 56.8 27.6z"/></g><g fill="#39B564"><path d="M92.6 136.5c7.8 0 12.9 3.4 12.9 8.7 0 3.7-2.3 6.7-6 7.7 4.4.8 7.2 4.3 7.2 8.9 0 6-5.2 9.7-13.5 9.7H76v-35.1l16.6.1zm-7.7 14h7.2c2.6 0 4.3-1.4 4.3-3.6 0-2.3-1.7-3.6-4.3-3.6h-7.2v7.2zm0 14.2h7.2c3.3 0 5.4-1.4 5.4-3.9 0-2.3-2.1-3.8-5.4-3.8h-7.2v7.7zM120.8 143.5v7h16.7v7h-16.7v7.1h19.1v7h-28v-35.1h27.5v7h-18.6zM172.9 140l-3.4 7c-3.7-2.1-8.4-3.6-11.2-3.6-2.3 0-3.9.8-3.9 2.5 0 6.1 18.5 2.6 18.5 15.3 0 7-6.2 10.7-14.1 10.7-5.9 0-11.8-2.2-16.1-5.6l3.4-6.9c3.6 3.2 9 5.2 12.7 5.2 2.8 0 4.5-1 4.5-3 0-6.2-18.5-2.5-18.5-15 0-6.5 5.6-10.6 14-10.6 5.3.1 10.5 1.7 14.1 4zM194.1 143.7v27.9h-8.9v-27.9h-10.5v-7.2h30v7.2h-10.6zM229 143.5v8.1h15.7v7H229v12.9h-8.9v-35.1h26v7l-17.1.1zM266.3 161.7h-7v9.9h-8.9v-35.1H266c9.3 0 14.6 4.4 14.6 12.2 0 5.4-2.3 9.2-6.3 11.3l7.4 11.6h-10.1l-5.3-9.9zm-.3-7c3.9 0 6.1-1.9 6.1-5.6 0-3.6-2.3-5.5-6.1-5.5h-6.7v11.2l6.7-.1zM286.6 171.6v-35.1h8.9v35.1h-8.9zM311.5 143.5v7h16.7v7h-16.7v7.1h19.1v7h-28v-35.1H330v7h-18.5zM360.8 171.6L344.7 150v21.6h-8.4v-35.1h7.8l16.2 21.6v-21.6h8.3v35.1h-7.8zM390.8 136.5c11 0 18.6 7.1 18.6 17.5s-7.7 17.5-19 17.5h-14.7v-35.1h15.1zm-6.2 28h6.3c5.4 0 9.4-4.2 9.4-10.4s-4.1-10.5-9.8-10.5h-6v20.9zM441.4 140l-3.4 7c-3.7-2.1-8.4-3.6-11.2-3.6-2.3 0-3.9.8-3.9 2.5 0 6.1 18.5 2.6 18.5 15.3 0 7-6.2 10.7-14.1 10.7-5.9 0-11.8-2.2-16.1-5.6l3.4-6.9c3.6 3.2 9 5.2 12.7 5.2 2.8 0 4.5-1 4.5-3 0-6.2-18.5-2.5-18.5-15 0-6.5 5.6-10.6 14-10.6 5.3.1 10.5 1.7 14.1 4z"/></g><path fill="#FFF" d="M456.2 130.9H61.4c-1.1 0-2-.9-2-2s.9-2 2-2h394.8c1.1 0 2 .9 2 2s-.9 2-2 2zM456.2 182.8H61.4c-1.1 0-2-.9-2-2s.9-2 2-2h394.8c1.1 0 2 .9 2 2s-.9 2-2 2z"/><path fill="none" d="M339.4 114.2l-1.9 3.2c-.4.6-1 1-1.7 1-.3 0-.6-.1-1-.3-1-.5-1.3-1.7-.7-2.7l1.8-3.2c-4.5-2.5-9.2-4.7-14-6.7-6.9-2.9-13.9-5.4-21.1-7.3-.1 0-.3 0-.4-.1-.1-.1-.3-.1-.4-.1-13.7-3.6-27.9-5.4-42.3-5.4h-1v3.7c0 1.1-.9 2-2 2s-2-.9-2-2v-3.6c-12.8.4-25.3 2.2-37.4 5.4-.1.1-.3.1-.4.1-.1.1-.3.1-.4.1-7.2 1.9-14.2 4.3-21.1 7.3-6.6 2.8-13 6-19.2 9.6l1.9 3.2c.5 1 .2 2.1-.7 2.7-.3.2-.6.3-1 .3-.7 0-1.4-.3-1.7-1l-1.8-3.2c-5.7 3.5-11.2 7.4-16.4 11.6h206.4c-6.8-5.4-14-10.2-21.5-14.6zM108.1 349.8h7.9c-.7-1.1-1.4-2.2-2.1-3.4l-5.8 3.4zM397.9 337.5c-1-.5-1.3-1.7-.7-2.7.5-1 1.7-1.3 2.7-.7l3.2 1.8c2.5-4.5 4.7-9.2 6.7-14 2.9-6.9 5.4-13.9 7.3-21.1 0-.1 0-.3.1-.5.1-.1.1-.3.1-.4 3.6-13.7 5.4-27.9 5.4-42.3v-1H419c-1.1 0-2-.9-2-2s.9-2 2-2h3.6c-.4-12.8-2.2-25.3-5.4-37.4-.1-.1-.1-.3-.1-.4-.1-.1-.1-.3-.1-.5-1.9-7.2-4.3-14.2-7.3-21.1-1.8-4.3-3.8-8.5-6-12.6H118c-.4.5-1 .7-1.5.7-.3 0-.6-.1-1-.3l-.8-.5h-3.1c-2.1 4.1-4.1 8.3-6 12.6-2.9 6.9-5.4 13.9-7.3 21.1 0 .1 0 .3-.1.5-.1.1-.1.3-.1.4-3.6 13.7-5.5 27.9-5.5 42.3v1h3.7c1.1 0 2 .9 2 2s-.9 2-2 2h-3.6c.4 12.8 2.2 25.3 5.4 37.4.1.1.1.3.1.4.1.1.1.3.1.5 1.9 7.2 4.3 14.2 7.3 21.1 2.8 6.6 6 13 9.6 19.2l3.2-1.9c1-.5 2.1-.2 2.7.7.5 1 .2 2.1-.7 2.7l-3.2 1.8c1.1 1.8 2.3 3.6 3.4 5.3h273.9c2.3-3.4 4.5-6.9 6.5-10.4l-3.1-1.7zM179.5 403.1c4.5 2.5 9.2 4.7 14 6.7 6.9 2.9 13.9 5.4 21.1 7.3.1 0 .3 0 .5.1.1.1.3.1.4.1 13.7 3.6 27.9 5.4 42.3 5.4h1V419c0-1.1.9-2 2-2s2 .9 2 2v3.6c12.8-.4 25.3-2.2 37.4-5.4.1-.1.3-.1.4-.1.1-.1.3-.1.5-.1 7.2-1.9 14.2-4.3 21.1-7.3 5.6-2.4 11-5.1 16.3-8h-158l-1 1.4z"/><path fill="#FFF" d="M200.5 52c.3.9 1 1.5 1.9 1.5.2 0 .3 0 .5-.1 1-.3 1.7-1.4 1.4-2.4l-3.1-11.5c-.3-1-1.4-1.7-2.4-1.4-1 .3-1.7 1.4-1.4 2.4l3.1 11.5zM105.3 108.1c.4.4.9.6 1.4.6.5 0 1-.2 1.4-.6.8-.8.8-2 0-2.8l-8.4-8.4c-.8-.8-2-.8-2.8 0-.8.8-.8 2 0 2.8l8.4 8.4zM51 204.3c.2.1.3.1.5.1.9 0 1.7-.6 1.9-1.5.3-1-.3-2.1-1.4-2.4l-11.5-3c-1-.3-2.1.3-2.4 1.4-.3 1 .3 2.1 1.4 2.4l11.5 3zM51 311l-11.5 3c-1 .3-1.7 1.4-1.4 2.4.3.9 1 1.5 1.9 1.5.2 0 .3 0 .5-.1l11.5-3.1c1-.3 1.7-1.4 1.4-2.4-.2-.9-1.3-1.6-2.4-1.3zM105.3 407.3l-8.4 8.4c-.8.8-.8 2 0 2.8.4.4.9.6 1.4.6.5 0 1-.2 1.4-.6l8.4-8.4c.8-.8.8-2 0-2.8-.7-.8-2-.8-2.8 0zM203 462c-1-.3-2.1.3-2.4 1.4l-3.1 11.5c-.3 1 .3 2.1 1.4 2.4.2.1.3.1.5.1.9 0 1.7-.6 1.9-1.5l3.1-11.5c.3-1.1-.4-2.2-1.4-2.4zM314.9 463.4c-.3-1-1.4-1.7-2.4-1.4-1 .3-1.7 1.4-1.4 2.4l3 11.5c.3.9 1 1.5 1.9 1.5.2 0 .3 0 .5-.1 1-.3 1.7-1.4 1.4-2.4l-3-11.5zM116.5 181.6c.6 0 1.2-.3 1.5-.7h-3.3l.8.5c.3.1.7.2 1 .2zM170.9 117.3l1.8 3.2c.4.6 1 1 1.7 1 .3 0 .6-.1 1-.3 1-.5 1.3-1.7.7-2.7l-1.9-3.2c6.2-3.6 12.6-6.8 19.2-9.6 6.9-2.9 13.9-5.4 21.1-7.3.1 0 .3 0 .4-.1.1-.1.3-.1.4-.1 12.2-3.2 24.7-5.1 37.4-5.4v3.6c0 1.1.9 2 2 2s2-.9 2-2v-3.7h1c14.4 0 28.6 1.8 42.3 5.4.1.1.3.1.4.1.1.1.3.1.4.1 7.2 1.9 14.2 4.3 21.1 7.3 4.8 2 9.5 4.3 14 6.7l-1.8 3.2c-.5 1-.2 2.1.7 2.7.3.2.6.3 1 .3.7 0 1.4-.3 1.7-1l1.9-3.2c7.6 4.3 14.8 9.2 21.6 14.6h6.2c-8-6.9-16.6-12.9-25.8-18.1l4.1-7.3c.5-1 .2-2.1-.7-2.7-.9-.6-2.1-.2-2.7.7l-4.2 7.3c-4.7-2.5-9.5-4.9-14.4-6.9-6.6-2.8-13.3-5.1-20.1-7.1l8.1-30c.3-1-.3-2.1-1.4-2.4-1-.3-2.1.3-2.4 1.4l-8.1 30.1c-13.6-3.4-27.6-5.2-41.8-5.2h-1v-8.4c0-1.1-.9-2-2-2s-2 .9-2 2v8.5c-12.6.4-24.9 2.1-36.9 5.1l-8.1-30.2c-.3-1-1.4-1.7-2.4-1.4-1 .3-1.7 1.4-1.4 2.4l8.1 30.2c-6.8 1.9-13.5 4.3-20.1 7.1-6.8 2.8-13.3 6.2-19.6 9.8l-4.1-7.3c-.5-1-1.7-1.3-2.7-.7-1 .5-1.3 1.7-.7 2.7l4.2 7.3c-7.3 4.5-14.1 9.5-20.7 15h6.2c5.1-4.1 10.6-8 16.3-11.5zM321.9 409.8c-6.9 2.9-13.9 5.4-21.1 7.3-.1 0-.3 0-.5.1-.1.1-.3.1-.4.1-12.2 3.2-24.7 5.1-37.4 5.4V419c0-1.1-.9-2-2-2s-2 .9-2 2v3.7h-1c-14.4 0-28.6-1.8-42.3-5.4-.1-.1-.3-.1-.4-.1-.1-.1-.3-.1-.5-.1-7.2-1.9-14.2-4.3-21.1-7.3-4.8-2-9.5-4.3-14-6.7l.7-1.3H169c1.6 1 3.1 1.9 4.7 2.8l-4.1 7.3c-.5 1-.2 2.1.7 2.7.3.2.6.3 1 .3.7 0 1.4-.3 1.7-1l4.2-7.3c4.7 2.5 9.5 4.9 14.4 6.9 6.6 2.8 13.3 5.1 20.1 7.1l-8 30.1c-.3 1 .3 2.1 1.4 2.4.2.1.3.1.5.1.9 0 1.7-.6 1.9-1.5l8.1-30.2c13.6 3.4 27.6 5.2 41.8 5.2h1v8.5c0 1.1.9 2 2 2s2-.9 2-2v-8.5c12.6-.4 24.9-2.1 36.9-5.1l8.1 30.2c.3.9 1 1.5 1.9 1.5.2 0 .3 0 .5-.1 1-.3 1.7-1.4 1.4-2.4l-8.1-30.2c6.8-1.9 13.5-4.3 20.1-7.1 6.8-2.8 13.3-6.2 19.6-9.8l4.1 7.3c.4.6 1 1 1.7 1 .3 0 .6-.1 1-.3 1-.5 1.3-1.7.7-2.7l-4.1-7.1h-8.4c-4.8 2.8-10.2 5.5-15.9 7.9zM409.8 193.5c2.9 6.9 5.4 13.9 7.3 21.1 0 .1 0 .3.1.5.1.1.1.3.1.4 3.2 12.2 5.1 24.7 5.4 37.4H419c-1.1 0-2 .9-2 2s.9 2 2 2h3.7v1c0 14.4-1.8 28.6-5.4 42.3-.1.1-.1.3-.1.4-.1.1-.1.3-.1.5-1.9 7.2-4.3 14.2-7.3 21.1-2 4.8-4.3 9.5-6.7 14l-3.2-1.8c-1-.5-2.1-.2-2.7.7-.5 1-.2 2.1.7 2.7l3.2 1.9c-2 3.6-4.2 7.1-6.5 10.4h4.7c1.8-2.8 3.5-5.6 5.2-8.5l7.3 4.1c.3.2.6.3 1 .3.7 0 1.4-.3 1.7-1 .5-1 .2-2.1-.7-2.7l-7.3-4.2c2.5-4.7 4.9-9.5 6.9-14.4 2.8-6.6 5.1-13.3 7.1-20.1l30.1 8c.2.1.3.1.5.1.9 0 1.7-.6 1.9-1.5.3-1-.3-2.1-1.4-2.4l-30.2-8.1c3.4-13.6 5.2-27.6 5.2-41.8v-1h8.4c1.1 0 2-.9 2-2s-.9-2-2-2h-8.5c-.4-12.6-2.1-24.9-5.1-36.9l30.2-8.1c1-.3 1.7-1.4 1.4-2.4-.3-1-1.4-1.7-2.4-1.4l-30.2 8.1c-1.9-6.8-4.3-13.5-7.1-20.1-1.6-3.8-3.3-7.4-5.2-11.1h-4.5c2.4 4 4.4 8.1 6.2 12.5zM400.7 117.5c.8-.8.8-2 0-2.8-.8-.8-2-.8-2.8 0l-14.2 14.2h5.6l11.4-11.4zM113.8 346.5c.7 1.1 1.4 2.3 2.1 3.4h4.7c-1.2-1.7-2.3-3.6-3.4-5.3l3.2-1.8c1-.5 1.3-1.7.7-2.7-.5-1-1.7-1.3-2.7-.7l-3.2 1.9c-3.6-6.2-6.8-12.6-9.6-19.2-2.9-6.9-5.4-13.9-7.3-21.1 0-.1 0-.3-.1-.5-.1-.1-.1-.3-.1-.4-3.2-12.2-5.1-24.7-5.4-37.4h3.6c1.1 0 2-.9 2-2s-.9-2-2-2h-3.7v-1c0-14.4 1.8-28.6 5.5-42.3.1-.1.1-.3.1-.4.1-.1.1-.3.1-.5 1.9-7.2 4.3-14.2 7.3-21.1 1.8-4.3 3.8-8.5 6-12.6h-4.5c-1.8 3.6-3.6 7.3-5.2 11.1-2.8 6.6-5.1 13.3-7.1 20.1l-30.1-8c-1-.3-2.1.3-2.4 1.4-.3 1 .3 2.1 1.4 2.4l30.2 8.1c-3.4 13.6-5.2 27.6-5.2 41.8v1h-8.5c-1.1 0-2 .9-2 2s.9 2 2 2h8.5c.4 12.6 2.1 24.9 5.1 36.9l-30.2 8.1c-1 .3-1.7 1.4-1.4 2.4.3.9 1 1.5 1.9 1.5.2 0 .3 0 .5-.1l30.2-8.1c1.9 6.8 4.3 13.5 7.1 20.1 2.8 6.8 6.2 13.3 9.8 19.6l-7.3 4.1c-.9.5-1.2 1.6-.8 2.6h4.3l5.9-3.3zM117.5 114.7c-.8-.8-2-.8-2.8 0-.8.8-.8 2 0 2.8l11.4 11.4h5.6l-14.2-14.2zM410 407.3c-.8-.8-2-.8-2.8 0s-.8 2 0 2.8l8.4 8.4c.4.4.9.6 1.4.6s1-.2 1.4-.6c.8-.8.8-2 0-2.8l-8.4-8.4zM474.9 317.9c.2.1.3.1.5.1.9 0 1.7-.6 1.9-1.5.3-1-.3-2.1-1.4-2.4l-11.5-3.1c-1-.3-2.1.3-2.4 1.4-.3 1 .3 2.1 1.4 2.4l11.5 3.1zM474.9 197.5l-11.5 3.1c-1 .3-1.7 1.4-1.4 2.4.3.9 1 1.5 1.9 1.5.2 0 .3 0 .5-.1l11.5-3.1c1-.3 1.7-1.4 1.4-2.4-.3-1.1-1.4-1.7-2.4-1.4zM408.6 108.7c.5 0 1-.2 1.4-.6l8.4-8.4c.8-.8.8-2 0-2.8-.8-.8-2-.8-2.8 0l-8.4 8.4c-.8.8-.8 2 0 2.8.5.4.9.6 1.4.6zM312.4 53.4c.2.1.3.1.5.1.9 0 1.7-.6 1.9-1.5l3-11.5c.3-1-.3-2.1-1.4-2.4-1-.3-2.1.3-2.4 1.4L311 51c-.3 1.1.4 2.2 1.4 2.4z"/><path fill="#FFF" d="M254.7 71.3c1.1 0 2-.9 2-2V2c0-1.1-.9-2-2-2s-2 .9-2 2v67.3c.1 1.1.9 2 2 2zM159.2 97.1c.4.6 1 1 1.7 1 .3 0 .6-.1 1-.3 1-.5 1.3-1.7.7-2.7L129 36.7c-.5-1-1.7-1.3-2.7-.7-1 .5-1.3 1.7-.7 2.7l33.6 58.4zM35.7 130.7c-1-.5-2.1-.2-2.7.7-.5 1-.2 2.1.7 2.7l37.7 21.8v-4.6l-35.7-20.6zM2 262.6h67.3c1.1 0 2-.9 2-2s-.9-2-2-2H2c-1.1 0-2 .9-2 2 0 1.2.9 2 2 2zM167 420.6c-1-.5-2.1-.2-2.7.7l-33.7 58.3c-.5 1-.2 2.1.7 2.7.3.2.6.3 1 .3.7 0 1.4-.3 1.7-1l33.7-58.3c.6-.9.3-2.2-.7-2.7zM260.7 444.1c-1.1 0-2 .9-2 2v67.3c0 1.1.9 2 2 2s2-.9 2-2v-67.3c-.1-1.2-.9-2-2-2zM356.2 418.3c-.5-1-1.7-1.3-2.7-.7-1 .5-1.3 1.7-.7 2.7l33.7 58.3c.4.6 1 1 1.7 1 .3 0 .6-.1 1-.3 1-.5 1.3-1.7.7-2.7l-33.7-58.3zM423.3 347.6c-1-.5-2.1-.2-2.7.7-.3.5-.3 1-.2 1.5h6.7l-3.8-2.2zM513.4 252.8H446c-1.1 0-2 .9-2 2s.9 2 2 2h67.3c1.1 0 2-.9 2-2 .1-1.2-.8-2-1.9-2zM478.7 129c1-.5 1.3-1.7.7-2.7-.5-1-1.7-1.3-2.7-.7L446 143.2v4.6l32.7-18.8zM348.3 94.8c.3.2.6.3 1 .3.7 0 1.4-.3 1.7-1l33.7-58.3c.5-1 .2-2.1-.7-2.7-1-.5-2.1-.2-2.7.7l-33.7 58.3c-.6.9-.2 2.2.7 2.7z"/><path fill="#FFF" d="M456.2 351.8H61.4c-1.1 0-2-.9-2-2s.9-2 2-2h394.8c1.1 0 2 .9 2 2s-.9 2-2 2zM456.2 403.8H61.4c-1.1 0-2-.9-2-2s.9-2 2-2h394.8c1.1 0 2 .9 2 2s-.9 2-2 2z"/><g fill="#39B564"><path d="M198.4 373.9c0 10.2-8.1 18-19 18-10.8 0-18.9-7.7-18.9-18 0-10.2 8.1-17.8 18.9-17.8 10.9-.1 19 7.6 19 17.8zm-28.8 0c0 5.9 4.5 10.5 9.9 10.5s9.7-4.5 9.7-10.5c0-5.9-4.3-10.4-9.7-10.4-5.4 0-9.9 4.5-9.9 10.4zM227.6 391.4l-16.1-21.6v21.6h-8.4v-35.1h7.8l16.2 21.6v-21.6h8.3v35.1h-7.8zM266.3 384v7.4h-23.8v-35.1h8.9V384h14.9zM270.5 391.4v-35.1h8.9v35.1h-8.9zM311 391.4l-16.1-21.6v21.6h-8.4v-35.1h7.8l16.2 21.6v-21.6h8.3v35.1H311zM334.7 363.4v7h16.7v7h-16.7v7.1h19.1v7h-28v-35.1h27.5v7h-18.6z"/></g></svg>